# xmcd CD database file
#
# Track frame offsets:
#	150
#	23942
#	56301
#	89258
#	118559
#	140524
#	175773
#
# Disc length: 2543 seconds
#
# Revision: 0
# Processed by: cddbd v1.4PL0 Copyright (c) Steve Scherf et al.
# Submitted via: CDex 1.50Beta6
#
DISCID=5309ed07
DTITLE=Gary Moore - Live Hamburg Grosse Freiheit 13.3. CD2
DYEAR=2000
DGENRE=Blues
TTITLE0=Too Tired
TTITLE1=Further on up the Road
TTITLE2=The Blues is allright
TTITLE3=Still got the blues
TTITLE4=All your Love
TTITLE5=The Sky is crying
TTITLE6=Fire
EXTD=YEAR: 2000
EXTT0=
EXTT1=
EXTT2=
EXTT3=
EXTT4=
EXTT5=
EXTT6=
PLAYORDER=
